<?xml version="1.0" encoding="utf-8"?>
<!-- Generator: Adobe Illustrator 15.0.0, SVG Export Plug-In . SVG Version: 6.00 Build 0)  -->
<!DOCTYPE svg PUBLIC "-//W3C//DTD SVG 1.1//EN" "http://www.w3.org/Graphics/SVG/1.1/DTD/svg11.dtd">
<svg version="1.1" id="Capa_1" xmlns="http://www.w3.org/2000/svg" xmlns:xlink="http://www.w3.org/1999/xlink" x="0px" y="0px"
	 width="60px" height="60px" viewBox="0 0 60 60" enable-background="new 0 0 60 60" xml:space="preserve">
<g>
	<path fill="#FFFFFF" stroke="#000000" stroke-miterlimit="10" d="M1.164,5.556C1.151,6.917,6.293,6.608,7.533,6.608
		c2.435,7.908,4.749,15.93,7.273,23.749c-5.121,2.69-5.42,11.101,0,13.571c2.399,1.092,7.05,0.482,10.984,0.482
		c9.067,0,20.651,0,28.591,0c0.357-1.037-38.398-3.563-38.93-6.297c-0.771-3.975,3.343-4.123,6.297-4.686
		c11.104-2.102,23.046-4.631,33.609-6.625c0.259-5.662,0.787-11.919,0.806-17.286c-14.056,0-28.109,0-42.167,0
		c-0.756-2.475-1.464-5-2.104-7.591C8.773,1.926,4.289,5.556,1.164,5.556z"/>
	<path fill="#B9007C" stroke="#000000" stroke-miterlimit="10" d="M16.418,50.068c-0.555,1.896-0.121,3.455,0,3.885
		c0.492,1.648,2.359,3.428,3.88,3.867c5.138,1.479,9.019-3.813,7.435-8.074c-0.954-2.543-3.486-4.074-6.629-3.555
		C18.092,46.686,16.923,48.359,16.418,50.068z"/>
	<path fill="#B9007C" stroke="#000000" stroke-miterlimit="10" d="M48.896,57.982c8.207-0.135,7.313-12.945-0.979-11.791
		C40.551,47.223,41.975,58.098,48.896,57.982z"/>
	<path fill="#FFFFFF" stroke="#000000" stroke-miterlimit="10" d="M21.104,46.191c3.143-0.521,5.675,1.012,6.629,3.555
		c1.584,4.262-2.296,9.553-7.435,8.074c-1.521-0.439-3.388-2.219-3.88-3.867c-0.121-0.43-0.555-1.986,0-3.885
		C16.923,48.359,18.092,46.686,21.104,46.191z"/>
	<path fill="#FFFFFF" stroke="#000000" stroke-miterlimit="10" d="M47.919,46.191c8.29-1.154,9.185,11.656,0.978,11.791
		C41.975,58.098,40.551,47.223,47.919,46.191z"/>
</g>
</svg>
