<?xml version="1.0" encoding="utf-8"?>
<!-- Generator: Adobe Illustrator 15.0.0, SVG Export Plug-In . SVG Version: 6.00 Build 0)  -->
<!DOCTYPE svg PUBLIC "-//W3C//DTD SVG 1.1//EN" "http://www.w3.org/Graphics/SVG/1.1/DTD/svg11.dtd">
<svg version="1.1" id="Capa_1" xmlns="http://www.w3.org/2000/svg" xmlns:xlink="http://www.w3.org/1999/xlink" x="0px" y="0px"
	 width="60px" height="60px" viewBox="0 0 60 60" enable-background="new 0 0 60 60" xml:space="preserve">
<g>
	<path fill="none" stroke="#000000" stroke-width="0.5" stroke-miterlimit="10" d="M0.907,4.671
		c-0.019,1.41,5.316,1.085,6.605,1.085c2.523,8.192,4.917,16.504,7.533,24.613c-5.307,2.783-5.622,11.503,0,14.064
		c2.486,1.133,7.311,0.502,11.383,0.502c9.398,0,21.403,0,29.63,0c0.371-1.076-39.79-3.693-40.347-6.531
		c-0.798-4.119,3.47-4.269,6.531-4.853c11.504-2.182,23.88-4.798,34.827-6.867c0.269-5.873,0.816-12.348,0.834-17.915
		c-14.564,0-29.13,0-43.695,0c-0.789-2.561-1.521-5.177-2.189-7.867C8.793,0.904,4.145,4.671,0.907,4.671z"/>
	<path fill="none" stroke="#000000" stroke-width="0.5" stroke-miterlimit="10" d="M16.716,50.799c-0.575,1.967-0.13,3.58,0,4.025
		c0.51,1.707,2.449,3.555,4.026,4.008c5.325,1.531,9.342-3.951,7.7-8.367c-0.983-2.635-3.618-4.221-6.865-3.684
		C18.451,47.291,17.235,49.027,16.716,50.799z"/>
	<path fill="none" stroke="#000000" stroke-width="0.5" stroke-miterlimit="10" d="M50.374,59
		c8.507-0.139,7.579-13.416-1.013-12.219C41.729,47.848,43.202,59.121,50.374,59z"/>
	<path fill="none" stroke="#000000" stroke-width="0.5" stroke-miterlimit="10" d="M21.577,46.781
		c3.247-0.537,5.882,1.049,6.865,3.684c1.642,4.416-2.375,9.898-7.7,8.367c-1.577-0.453-3.516-2.301-4.026-4.008
		c-0.13-0.445-0.575-2.059,0-4.025C17.235,49.027,18.451,47.291,21.577,46.781z"/>
	<path fill="none" stroke="#000000" stroke-width="0.5" stroke-miterlimit="10" d="M49.361,46.781
		c8.592-1.197,9.52,12.08,1.013,12.219C43.202,59.121,41.729,47.848,49.361,46.781z"/>
</g>
</svg>
